name D:\school\WTK\thesis\model\3dpredictsim\Results\MidTarsalJoint\Fal_s1_bCst_PF_linear_ls144_MT_k300_kmtp_ig24.mot
datacolumns 128
datarows 4
range 0.57305839 0.60744189
endheader
time	pelvis_tilt	pelvis_list	pelvis_rotation	pelvis_tx	pelvis_ty	pelvis_tz	hip_flexion_l	hip_adduction_l	hip_rotation_l	hip_flexion_r	hip_adduction_r	hip_rotation_r	knee_angle_l	knee_angle_r	ankle_angle_l	ankle_angle_r	subtalar_angle_l	subtalar_angle_r	tmt_angle_l	tmt_angle_r	mtp_angle_l	mtp_angle_r	lumbar_extension	lumbar_bending	lumbar_rotation	arm_flex_l	arm_add_l	arm_rot_l	arm_flex_r	arm_add_r	arm_rot_r	elbow_flex_l	elbow_flex_r	pro_sup_l	pro_sup_r	glut_med1_l/activation	glut_med2_l/activation	glut_med3_l/activation	glut_min1_l/activation	glut_min2_l/activation	glut_min3_l/activation	semimem_l/activation	semiten_l/activation	bifemlh_l/activation	bifemsh_l/activation	sar_l/activation	add_long_l/activation	add_brev_l/activation	add_mag1_l/activation	add_mag2_l/activation	add_mag3_l/activation	tfl_l/activation	pect_l/activation	grac_l/activation	glut_max1_l/activation	glut_max2_l/activation	glut_max3_l/activation	iliacus_l/activation	psoas_l/activation	quad_fem_l/activation	gem_l/activation	peri_l/activation	rect_fem_l/activation	vas_med_l/activation	vas_int_l/activation	vas_lat_l/activation	med_gas_l/activation	lat_gas_l/activation	soleus_l/activation	tib_post_l/activation	flex_dig_l/activation	flex_hal_l/activation	tib_ant_l/activation	per_brev_l/activation	per_long_l/activation	per_tert_l/activation	ext_dig_l/activation	ext_hal_l/activation	ercspn_l/activation	intobl_l/activation	extobl_l/activation	glut_med1_r/activation	glut_med2_r/activation	glut_med3_r/activation	glut_min1_r/activation	glut_min2_r/activation	glut_min3_r/activation	semimem_r/activation	semiten_r/activation	bifemlh_r/activation	bifemsh_r/activation	sar_r/activation	add_long_r/activation	add_brev_r/activation	add_mag1_r/activation	add_mag2_r/activation	add_mag3_r/activation	tfl_r/activation	pect_r/activation	grac_r/activation	glut_max1_r/activation	glut_max2_r/activation	glut_max3_r/activation	iliacus_r/activation	psoas_r/activation	quad_fem_r/activation	gem_r/activation	peri_r/activation	rect_fem_r/activation	vas_med_r/activation	vas_int_r/activation	vas_lat_r/activation	med_gas_r/activation	lat_gas_r/activation	soleus_r/activation	tib_post_r/activation	flex_dig_r/activation	flex_hal_r/activation	tib_ant_r/activation	per_brev_r/activation	per_long_r/activation	per_tert_r/activation	ext_dig_r/activation	ext_hal_r/activation	ercspn_r/activation	intobl_r/activation	extobl_r/activation	
          0.57305839	         -2.92935592	          1.97653433	         -5.54892615	          0.71632299	          0.91855562	          0.00349831	         29.36425105	          2.92425596	         -3.37385100	        -17.20767392	         -0.54982690	          6.31133647	         -9.21497745	         -6.17252754	          8.34408991	         -0.28777493	         -5.45865799	          5.54162489	         -2.90486818	          1.75744040	         -0.07671325	         21.39048832	         -1.86107884	          0.01564109	          2.11464827	         -5.47105773	        -13.48467474	          6.62566913	          5.26739089	        -13.44979103	         15.73539661	         17.28186923	         33.76018144	         86.51662706	         86.51662706	          0.05955090	          0.05955087	          0.05000106	          0.05955102	          0.05955095	          0.05952992	          0.24676468	          0.09476921	          0.16349198	          0.09728609	          0.05000063	          0.14275701	          0.20179325	          0.17225032	          0.19525286	          0.11617844	          0.05000046	          0.05002529	          0.14430828	          0.05234266	          0.06477951	          0.15938433	          0.05000087	          0.05000040	          0.16860052	          0.25903322	          0.11857633	          0.05000036	          0.07651820	          0.07455628	          0.06816346	          0.06545978	          0.06735968	          0.06278492	          0.05000013	          0.05000105	          0.05000091	          0.45348027	          0.24480972	          0.17606475	          0.15183459	          0.49472189	          0.24171740	          0.05955093	          0.12624489	          0.10828371	          0.26270410	          0.10060716	          0.07356608	          0.28289652	          0.18174209	          0.11293665	          0.05000292	          0.05000070	          0.05000046	          0.05000547	          0.11642171	          0.05000314	          0.05000183	          0.05000147	          0.05000360	          0.05000127	          0.31893904	          0.05009014	          0.05000564	          0.05001122	          0.05000386	          0.05000246	          0.48893551	          0.71245114	          0.05000050	          0.05000150	          0.06770465	          0.31654438	          0.05000101	          0.05000100	          0.05000096	          0.28502707	          0.39237806	          0.31388036	          0.29440783	          0.28276124	          0.36617096	          0.05000014	          0.05955080	          0.09808157	          0.05000122	          0.05000026	          0.05000081	          0.05000004	          0.05000007	          0.05000016	
          0.58451956	         -2.92971702	          2.06450076	         -5.89115753	          0.73350787	          0.91756975	          0.00333426	         28.84011961	          3.26617735	         -3.12447447	        -17.25537373	         -0.86785002	          6.08492098	         -9.81082491	         -7.79820867	          7.67429604	         -0.73234838	         -5.72045504	          6.38007074	         -2.96668985	          1.02680511	         -0.07607910	         22.75662371	         -1.65349896	         -0.15925391	          2.18018538	         -6.41110103	        -13.47706740	          6.52285949	          5.05283410	        -13.45276857	         16.12424012	         16.85720954	         34.99630028	         86.51662706	         86.51662706	          0.05000005	          0.05000016	          0.09041145	          0.05000017	          0.05000020	          0.05000025	          0.20718790	          0.07956994	          0.13727069	          0.08168320	          0.07086808	          0.11986373	          0.28162171	          0.29837066	          0.18659490	          0.10172752	          0.05000120	          0.07119249	          0.12116958	          0.05000950	          0.07034001	          0.14972676	          0.05000232	          0.07092691	          0.52870543	          0.21748895	          0.09955906	          0.07092663	          0.09023435	          0.09164308	          0.07710692	          0.06592311	          0.07092596	          0.06098375	          0.05955126	          0.05187402	          0.05955326	          0.46412885	          0.24677326	          0.21568040	          0.13167674	          0.41537711	          0.20295018	          0.05000003	          0.10599737	          0.09091685	          0.22057103	          0.08447163	          0.06176753	          0.23752527	          0.15259396	          0.09482371	          0.05001795	          0.05000299	          0.05000321	          0.05000113	          0.09775037	          0.12104133	          0.05020700	          0.05955227	          0.05945079	          0.05955575	          0.26778706	          0.05944861	          0.05008781	          0.05002813	          0.05001812	          0.05003314	          0.41051876	          0.64303132	          0.05000781	          0.05739100	          0.05950456	          0.26577645	          0.12507655	          0.15916506	          0.13572759	          0.23931359	          0.32944746	          0.28504298	          0.27457714	          0.23741774	          0.31008551	          0.05000019	          0.05000054	          0.10641419	          0.05000048	          0.05000018	          0.05000081	          0.05091188	          0.07092647	          0.06073470	
          0.59598072	         -2.92564296	          2.15662086	         -6.20205573	          0.75103958	          0.91664172	          0.00318903	         28.20654349	          3.51063062	         -2.84275746	        -17.26718692	         -1.19202169	          5.84752695	        -10.57190274	         -9.48078588	          7.06609542	         -1.28649291	         -5.99708141	          7.18618315	         -3.07606170	          0.15384852	         -0.15562436	         24.07066584	         -1.42174812	         -0.34791039	          2.23273004	         -7.39152797	        -13.47594831	          6.47256561	          4.75787011	        -13.45107924	         16.44725695	         16.50027764	         36.20138254	         86.51662706	         86.51662706	          0.21120817	          0.20622764	          0.25666187	          0.30991060	          0.20337318	          0.21497515	          0.17395861	          0.06834841	          0.11525501	          0.08228312	          0.05950271	          0.10063983	          0.23645470	          0.25051737	          0.15666902	          0.11956910	          0.05000157	          0.05978034	          0.10265951	          0.05000090	          0.05905922	          0.13144196	          0.05954764	          0.05955160	          0.44391011	          0.18260771	          0.18723966	          0.05955124	          0.07576246	          0.07694525	          0.06474043	          0.05535026	          0.05955081	          0.05120303	          0.05000054	          0.05000177	          0.05000318	          0.51734740	          0.31122202	          0.18108916	          0.28444903	          0.51144357	          0.17040247	          0.05118621	          0.14270285	          0.07633536	          0.29532216	          0.07092406	          0.05186148	          0.29888582	          0.12812082	          0.07961580	          0.05000405	          0.05000074	          0.05000062	          0.05000071	          0.08207441	          0.10162862	          0.05000100	          0.05000230	          0.05000349	          0.05000613	          0.23566087	          0.05000564	          0.05000189	          0.05004268	          0.05001981	          0.05000807	          0.34467936	          0.63331428	          0.05000119	          0.05000352	          0.05000088	          0.22315064	          0.14958541	          0.13366643	          0.11398074	          0.20093174	          0.27660971	          0.23932692	          0.23899804	          0.19934084	          0.26035393	          0.05000008	          0.09959116	          0.13150278	          0.05000048	          0.05000012	          0.05000042	          0.05000007	          0.05955108	          0.05099393	
          0.60744189	         -2.91962747	          2.24741998	         -6.47360525	          0.76869950	          0.91581881	          0.00301441	         27.53630722	          3.72826588	         -2.56063368	        -17.20577088	         -1.51479671	          5.61536735	        -11.29734259	        -11.25909202	          6.54159108	         -1.96723923	         -6.27585987	          7.95696458	         -3.02391278	         -0.80249884	         -0.16121133	         25.23747141	         -1.19046928	         -0.54491806	          2.27771526	         -8.36065219	        -13.47439152	          6.46659739	          4.41676860	        -13.45406117	         16.72998357	         16.18835606	         37.35363606	         86.51662706	         86.51662706	          0.30166535	          0.30506129	          0.32861923	          0.26020721	          0.21517857	          0.19955463	          0.14605867	          0.05738839	          0.09677031	          0.06908659	          0.05000293	          0.08449901	          0.19853149	          0.21033912	          0.13154363	          0.14863626	          0.05000217	          0.05019384	          0.08619540	          0.19191616	          0.15330580	          0.14901736	          0.05000033	          0.05000077	          0.37271456	          0.15332076	          0.15721034	          0.05000054	          0.08544459	          0.08848627	          0.07556969	          0.05000016	          0.05000049	          0.05000007	          0.05000050	          0.05000131	          0.05000129	          0.59642477	          0.33143372	          0.19988975	          0.34986730	          0.53690751	          0.29665256	          0.07397680	          0.11981582	          0.06409249	          0.30404030	          0.05954925	          0.05000034	          0.25098099	          0.10757265	          0.06684697	          0.05000811	          0.05000078	          0.05000060	          0.05000085	          0.06891274	          0.13498844	          0.06382225	          0.05001176	          0.05002080	          0.05000391	          0.19787336	          0.07096496	          0.05000511	          0.05000927	          0.05000466	          0.05000390	          0.28939903	          0.59898600	          0.05000062	          0.05000224	          0.05000066	          0.18736115	          0.16217863	          0.16266539	          0.15461342	          0.16870568	          0.23224621	          0.20094292	          0.20066795	          0.16737038	          0.21859790	          0.05000039	          0.08362000	          0.12938374	          0.05000145	          0.07152657	          0.05000242	          0.06372473	          0.05000013	          0.05000010	
